<?xml version="1.0" encoding="UTF-8"?>
<!DOCTYPE svg PUBLIC "-//W3C//DTD SVG 1.1//EN" "http://www.w3.org/Graphics/SVG/1.1/DTD/svg11.dtd">
<svg xmlns="http://www.w3.org/2000/svg" version="1.1" width="512px" height="512px" style="shape-rendering:geometricPrecision; text-rendering:geometricPrecision; image-rendering:optimizeQuality; fill-rule:evenodd; clip-rule:evenodd" xmlns:xlink="http://www.w3.org/1999/xlink">
<g><path style="opacity:0.977" fill="#000000" d="M 229.5,-0.5 C 242.5,-0.5 255.5,-0.5 268.5,-0.5C 354.768,12.2231 411.934,59.8898 440,142.5C 453.667,191.5 467.333,240.5 481,289.5C 492.669,341.623 476.503,382.456 432.5,412C 409.998,423.868 385.998,429.034 360.5,427.5C 348.109,474.563 318.109,502.563 270.5,511.5C 260.5,511.5 250.5,511.5 240.5,511.5C 192.891,502.563 162.891,474.563 150.5,427.5C 111.822,431.472 78.322,420.472 50,394.5C 25.3196,367.112 15.9863,335.112 22,298.5C 33.3333,247.833 44.6667,197.167 56,146.5C 78.0025,73.1644 125.836,25.9977 199.5,5C 209.58,2.82224 219.58,0.988902 229.5,-0.5 Z M 238.5,42.5 C 302.183,41.5803 350.683,67.9136 384,121.5C 389.306,131.088 393.64,141.088 397,151.5C 412.137,205.047 426.803,258.714 441,312.5C 442.065,347.094 426.232,369.928 393.5,381C 388.547,381.995 383.547,382.662 378.5,383C 294.5,383.667 210.5,383.667 126.5,383C 93.8436,380.343 73.3436,363.176 65,331.5C 63,323.5 63,315.5 65,307.5C 76.0781,256.776 87.4114,206.109 99,155.5C 113.218,109.616 142.051,76.4498 185.5,56C 202.615,48.8052 220.281,44.3052 238.5,42.5 Z M 196.5,426.5 C 235.839,426.167 275.172,426.5 314.5,427.5C 298.197,460.984 271.864,473.484 235.5,465C 216.681,458.014 203.681,445.18 196.5,426.5 Z"/></g>
</svg>
