<?xml version="1.0" encoding="UTF-8"?>
<!DOCTYPE svg PUBLIC "-//W3C//DTD SVG 1.1//EN" "http://www.w3.org/Graphics/SVG/1.1/DTD/svg11.dtd">
<svg xmlns="http://www.w3.org/2000/svg" version="1.1" width="512px" height="512px" style="shape-rendering:geometricPrecision; text-rendering:geometricPrecision; image-rendering:optimizeQuality; fill-rule:evenodd; clip-rule:evenodd" xmlns:xlink="http://www.w3.org/1999/xlink">
<g><path style="opacity:0.972" fill="#000000" d="M 143.5,-0.5 C 151.833,-0.5 160.167,-0.5 168.5,-0.5C 201.471,5.98647 222.805,25.3198 232.5,57.5C 319.834,57.3333 407.167,57.5 494.5,58C 502.498,60.1694 508.165,65.0028 511.5,72.5C 511.5,77.1667 511.5,81.8333 511.5,86.5C 508.165,93.9972 502.498,98.8306 494.5,101C 407.167,101.5 319.834,101.667 232.5,101.5C 223.782,131.718 204.115,150.551 173.5,158C 138.292,164.133 110.126,152.966 89,124.5C 84.5514,117.436 81.0514,109.936 78.5,102C 57.8333,101.667 37.1667,101.333 16.5,101C 8.50176,98.8306 2.83509,93.9972 -0.5,86.5C -0.5,81.8333 -0.5,77.1667 -0.5,72.5C 2.83509,65.0028 8.50176,60.1694 16.5,58C 37.1667,57.6667 57.8333,57.3333 78.5,57C 89.2355,25.3239 110.902,6.1572 143.5,-0.5 Z M 151.5,42.5 C 176.276,42.6965 189.943,55.0298 192.5,79.5C 190.593,101.907 178.426,114.241 156,116.5C 133.564,114.231 121.397,101.897 119.5,79.5C 120.932,59.074 131.599,46.7406 151.5,42.5 Z"/></g>
<g><path style="opacity:0.972" fill="#000000" d="M 511.5,248.5 C 511.5,253.167 511.5,257.833 511.5,262.5C 508.165,269.997 502.498,274.831 494.5,277C 473.833,277.333 453.167,277.667 432.5,278C 417.076,319.725 387.076,338.725 342.5,335C 309.342,328.932 288.009,309.765 278.5,277.5C 191.166,277.667 103.833,277.5 16.5,277C 8.50176,274.831 2.83509,269.997 -0.5,262.5C -0.5,257.833 -0.5,253.167 -0.5,248.5C 2.83509,241.003 8.50176,236.169 16.5,234C 103.833,233.5 191.166,233.333 278.5,233.5C 287.227,203.273 306.894,184.44 337.5,177C 372.7,170.863 400.867,182.03 422,210.5C 426.449,217.564 429.949,225.064 432.5,233C 453.167,233.333 473.833,233.667 494.5,234C 502.498,236.169 508.165,241.003 511.5,248.5 Z M 350.5,218.5 C 375.294,218.632 388.961,230.965 391.5,255.5C 389.603,277.897 377.436,290.231 355,292.5C 332.545,290.213 320.379,277.879 318.5,255.5C 319.913,235.091 330.58,222.758 350.5,218.5 Z"/></g>
<g><path style="opacity:0.972" fill="#000000" d="M 511.5,424.5 C 511.5,429.167 511.5,433.833 511.5,438.5C 508.165,445.997 502.498,450.831 494.5,453C 407.167,453.5 319.834,453.667 232.5,453.5C 222.765,485.691 201.432,505.024 168.5,511.5C 160.167,511.5 151.833,511.5 143.5,511.5C 110.902,504.843 89.2355,485.676 78.5,454C 57.8333,453.667 37.1667,453.333 16.5,453C 8.50176,450.831 2.83509,445.997 -0.5,438.5C -0.5,433.833 -0.5,429.167 -0.5,424.5C 2.83509,417.003 8.50176,412.169 16.5,410C 37.1667,409.667 57.8333,409.333 78.5,409C 93.9236,367.275 123.924,348.275 168.5,352C 201.718,358.085 223.051,377.251 232.5,409.5C 319.834,409.333 407.167,409.5 494.5,410C 502.498,412.169 508.165,417.003 511.5,424.5 Z M 151.5,394.5 C 176.312,394.651 189.979,406.985 192.5,431.5C 190.621,453.879 178.455,466.213 156,468.5C 133.564,466.231 121.397,453.897 119.5,431.5C 120.932,411.074 131.599,398.741 151.5,394.5 Z"/></g>
</svg>
