<?xml version="1.0" encoding="UTF-8"?>
<!DOCTYPE svg PUBLIC "-//W3C//DTD SVG 1.1//EN" "http://www.w3.org/Graphics/SVG/1.1/DTD/svg11.dtd">
<svg xmlns="http://www.w3.org/2000/svg" version="1.1" width="512px" height="512px" style="shape-rendering:geometricPrecision; text-rendering:geometricPrecision; image-rendering:optimizeQuality; fill-rule:evenodd; clip-rule:evenodd" xmlns:xlink="http://www.w3.org/1999/xlink">
<g><path style="opacity:0.99" fill="#000000" d="M 246.5,20.5 C 288.181,16.542 313.514,34.8754 322.5,75.5C 326.92,78.5484 331.587,80.715 336.5,82C 364.994,61.7812 392.661,62.7812 419.5,85C 447.907,112.15 451.073,141.983 429,174.5C 430.285,179.413 432.452,184.08 435.5,188.5C 471.832,195.324 490.165,217.158 490.5,254C 491.385,282.596 479.051,302.93 453.5,315C 447.202,317.157 440.869,319.157 434.5,321C 431.328,325.173 429.161,329.673 428,334.5C 452.063,374.087 444.896,406.92 406.5,433C 381.415,446.798 357.415,445.132 334.5,428C 329.673,429.161 325.173,431.328 321,434.5C 314.142,471.536 291.975,490.203 254.5,490.5C 217.4,490.408 195.4,472.074 188.5,435.5C 184.08,432.452 179.413,430.285 174.5,429C 146.006,449.219 118.339,448.219 91.5,426C 63.0934,398.85 59.9267,369.017 82,336.5C 82.6667,335.5 82.6667,334.5 82,333.5C 79.8333,329.833 77.6667,326.167 75.5,322.5C 39.1682,315.676 20.8349,293.842 20.5,257C 19.6155,228.404 31.9488,208.07 57.5,196C 63.7978,193.843 70.1311,191.843 76.5,190C 79.6722,185.827 81.8389,181.327 83,176.5C 62.2733,146.742 63.94,118.409 88,91.5C 115.127,64.1 144.627,61.2667 176.5,83C 181.327,81.8389 185.827,79.6722 190,76.5C 192.923,61.4878 199.423,48.3211 209.5,37C 220.227,27.7096 232.56,22.2096 246.5,20.5 Z M 248.5,177.5 C 265.125,176.653 280.125,181.153 293.5,191C 305.6,200.045 315.767,210.878 324,223.5C 336.667,244.833 336.667,266.167 324,287.5C 312.419,304.079 297.919,317.579 280.5,328C 255.935,337.753 233.601,334.086 213.5,317C 197.317,304.153 185.817,287.986 179,268.5C 175.37,249.72 179.37,232.72 191,217.5C 205.465,197.169 224.632,183.836 248.5,177.5 Z"/></g>
</svg>
