<?xml version="1.0" encoding="UTF-8"?>
<!DOCTYPE svg PUBLIC "-//W3C//DTD SVG 1.1//EN" "http://www.w3.org/Graphics/SVG/1.1/DTD/svg11.dtd">
<svg xmlns="http://www.w3.org/2000/svg" version="1.1" width="512px" height="512px" style="shape-rendering:geometricPrecision; text-rendering:geometricPrecision; image-rendering:optimizeQuality; fill-rule:evenodd; clip-rule:evenodd" xmlns:xlink="http://www.w3.org/1999/xlink">
<g><path style="opacity:0.97" fill="#000000" d="M 130.5,21.5 C 166.179,20.0831 191.679,35.4165 207,67.5C 219,100.166 212.166,128.166 186.5,151.5C 225.174,172.135 246.34,204.469 250,248.5C 250.793,254.885 250.626,261.218 249.5,267.5C 279.159,268.5 308.826,268.833 338.5,268.5C 338.5,260.5 338.5,252.5 338.5,244.5C 322.163,244.667 305.83,244.5 289.5,244C 276.646,242.145 268.479,234.978 265,222.5C 264.333,182.5 264.333,142.5 265,102.5C 268.596,91.904 275.762,85.0707 286.5,82C 346.833,81.3333 407.167,81.3333 467.5,82C 478.483,84.3169 485.649,90.8169 489,101.5C 490.637,140.461 490.97,179.461 490,218.5C 487.608,232.559 479.441,241.059 465.5,244C 448.837,244.5 432.17,244.667 415.5,244.5C 415.5,252.5 415.5,260.5 415.5,268.5C 432.17,268.333 448.837,268.5 465.5,269C 486.373,273.539 499.873,286.039 506,306.5C 507.642,353.129 507.975,399.796 507,446.5C 502.167,470 488,484.167 464.5,489C 325.167,489.667 185.833,489.667 46.5,489C 23,484.167 8.83333,470 4,446.5C 3.02498,399.796 3.35831,353.129 5,306.5C 8.88181,293.295 16.5485,282.961 28,275.5C 23.0322,233.056 35.8655,197.223 66.5,168C 74.9667,161.543 83.9667,155.876 93.5,151C 72.7989,132.916 64.2989,110.083 68,82.5C 75.8772,48.7884 96.7105,28.4551 130.5,21.5 Z M 131.5,49.5 C 164.008,47.7315 182.341,62.8981 186.5,95C 185.001,119.495 172.334,134.495 148.5,140C 128.764,142.707 112.93,136.207 101,120.5C 91.0014,103.508 91.0014,86.5082 101,69.5C 108.664,58.924 118.831,52.2574 131.5,49.5 Z M 292.5,107.5 C 349.208,107.171 405.875,107.504 462.5,108.5C 463.667,144.495 463.833,180.495 463,216.5C 447.244,217.491 431.411,217.825 415.5,217.5C 415.667,204.496 415.5,191.496 415,178.5C 412.559,172.392 408.392,167.892 402.5,165C 394.059,163.896 385.559,163.396 377,163.5C 369.833,163.667 362.667,163.833 355.5,164C 346.667,166.167 341.167,171.667 339,180.5C 338.5,192.829 338.333,205.162 338.5,217.5C 322.589,217.825 306.756,217.491 291,216.5C 290.333,180.833 290.333,145.167 291,109.5C 291.717,108.956 292.217,108.289 292.5,107.5 Z M 126.5,168.5 C 173.49,165.563 204.656,186.23 220,230.5C 223.104,242.968 224.27,255.635 223.5,268.5C 215.5,268.5 207.5,268.5 199.5,268.5C 199.91,259.75 199.41,251.084 198,242.5C 195.828,237.504 191.995,235.171 186.5,235.5C 181.442,235.278 177.609,237.278 175,241.5C 172.247,250.368 171.747,259.368 173.5,268.5C 150.5,268.5 127.5,268.5 104.5,268.5C 106.234,259.372 105.734,250.372 103,241.5C 100.391,237.278 96.5581,235.278 91.5,235.5C 85.961,235.18 82.1277,237.514 80,242.5C 78.5901,251.084 78.0901,259.75 78.5,268.5C 70.5,268.5 62.5,268.5 54.5,268.5C 51.7684,236.817 61.7684,209.984 84.5,188C 96.9291,177.95 110.929,171.45 126.5,168.5 Z M 365.5,190.5 C 373.5,190.5 381.5,190.5 389.5,190.5C 389.5,216.5 389.5,242.5 389.5,268.5C 381.5,268.5 373.5,268.5 365.5,268.5C 365.5,242.5 365.5,216.5 365.5,190.5 Z M 51.5,294.5 C 187.5,294.333 323.5,294.5 459.5,295C 471.788,297.621 478.954,305.121 481,317.5C 481.973,360.205 481.639,402.871 480,445.5C 475.97,455.768 468.47,461.601 457.5,463C 320.804,463.99 184.137,463.657 47.5,462C 37.5255,458.224 31.6921,451.057 30,440.5C 29.3333,399.5 29.3333,358.5 30,317.5C 32.2297,305.107 39.3963,297.44 51.5,294.5 Z"/></g>
</svg>
