<?xml version="1.0" encoding="UTF-8"?>
<!DOCTYPE svg PUBLIC "-//W3C//DTD SVG 1.1//EN" "http://www.w3.org/Graphics/SVG/1.1/DTD/svg11.dtd">
<svg xmlns="http://www.w3.org/2000/svg" version="1.1" width="512px" height="512px" style="shape-rendering:geometricPrecision; text-rendering:geometricPrecision; image-rendering:optimizeQuality; fill-rule:evenodd; clip-rule:evenodd" xmlns:xlink="http://www.w3.org/1999/xlink">
<g><path style="opacity:0.987" fill="#000000" d="M 211.5,-0.5 C 240.833,-0.5 270.167,-0.5 299.5,-0.5C 324.502,4.65354 343.168,18.4869 355.5,41C 393.499,41.5 431.499,41.6667 469.5,41.5C 469.987,178.189 469.487,314.856 468,451.5C 459.768,484.234 439.268,504.234 406.5,511.5C 305.833,511.5 205.167,511.5 104.5,511.5C 68.74,503.236 47.9067,480.902 42,444.5C 41.5,310.167 41.3333,175.834 41.5,41.5C 79.5015,41.6667 117.501,41.5 155.5,41C 167.832,18.4869 186.498,4.65354 211.5,-0.5 Z M 223.5,63.5 C 244.836,63.3334 266.169,63.5 287.5,64C 291.965,64.3128 295.132,66.4794 297,70.5C 297.5,82.4954 297.667,94.4954 297.5,106.5C 333.167,106.5 368.833,106.5 404.5,106.5C 404.994,218.223 404.494,329.89 403,441.5C 400.949,444.553 398.115,446.386 394.5,447C 301.833,447.667 209.167,447.667 116.5,447C 112.885,446.386 110.051,444.553 108,441.5C 106.506,329.89 106.006,218.223 106.5,106.5C 142.167,106.5 177.833,106.5 213.5,106.5C 213.333,94.4954 213.5,82.4954 214,70.5C 216.086,66.5547 219.253,64.2213 223.5,63.5 Z"/></g>
<g><path style="opacity:0.975" fill="#000000" d="M 249.5,169.5 C 273.07,168.199 290.903,177.532 303,197.5C 313.064,219.068 311.064,239.401 297,258.5C 277.436,278.123 254.936,282.289 229.5,271C 206.22,255.919 197.72,234.752 204,207.5C 211.686,185.757 226.853,173.09 249.5,169.5 Z"/></g>
<g><path style="opacity:0.983" fill="#000000" d="M 206.5,297.5 C 239.168,297.333 271.835,297.5 304.5,298C 336.309,302.808 355.475,320.975 362,352.5C 362.5,370.164 362.667,387.83 362.5,405.5C 291.167,405.5 219.833,405.5 148.5,405.5C 148.333,387.83 148.5,370.164 149,352.5C 155.7,320.964 174.867,302.63 206.5,297.5 Z"/></g>
</svg>
